<?xml version="1.0" encoding="UTF-8"?>
<svg id="Lag_2" data-name="Lag 2" xmlns="http://www.w3.org/2000/svg" xmlns:xlink="http://www.w3.org/1999/xlink" viewBox="0 0 557 753.42">
  <defs>
    <style>
      .cls-1 {
        fill: #1313d8;
      }

      .cls-1, .cls-2 {
        stroke-width: 0px;
      }

      .cls-2 {
        fill: url(#Ikke-navngivet_forløb_444);
      }
    </style>
    <linearGradient id="Ikke-navngivet_forløb_444" data-name="Ikke-navngivet forløb 444" x1="0" y1="376.09" x2="448" y2="376.09" gradientUnits="userSpaceOnUse">
      <stop offset=".05" stop-color="#1313d8"/>
      <stop offset=".19" stop-color="#4848e0"/>
      <stop offset=".37" stop-color="#8888eb"/>
      <stop offset=".54" stop-color="#bbbbf3"/>
      <stop offset=".68" stop-color="#e0e0f9"/>
      <stop offset=".79" stop-color="#f6f6fd"/>
      <stop offset=".87" stop-color="#fff"/>
    </linearGradient>
  </defs>
  <g id="Lag_3" data-name="Lag 3">
    <g>
      <polygon class="cls-2" points="448 734.09 224 734.09 0 734.09 0 376.09 0 18.09 224 18.09 448 18.09 448 376.09 448 734.09"/>
      <path class="cls-1" d="m556,60.09s-1.57,0-4.48.02c-25.52.98-43.52,22.98-64.52,35.98-3,1-7,3-10,2-16-11-15-40-39.22-38-2.57,0-5.15,0-7.74,0h-53.88c-2.74,0-5.46,0-8.11-.07-6.04-.93-12.04-2.93-16.04-7.93-8-12-13-38-32-25-20,13-37,33-61.82,33-3.55,0-7.44,0-11.64,0h-44.59c-2.62,0-5.28,0-7.99.04-26.96-.04-39.96,27.96-62.96,37.96-3,1-7,2-9,0-12-13-16-38-36.95-37.96-2.62-.04-5.21-.04-7.75-.04H6v-26h79.05c2.62,0,5.28,0,7.96,0,21.99-1,25.99,25,37.99,38,2,2,5,2,7,1,25-11,41-42,71.7-39h53.26c3.78,0,7.04,0,9.77-.13,6.27-.87,12.27-2.87,18.27-4.87,19-7,41-42,59-24,10,11,15,31,34.44,29h57.89c2.73,0,5.44,0,8.12.02,21.55-2.02,22.55,23.98,36.55,35.98,2,1,6,1,8,0,20-10,36-27,58-33,0,6,3,11,2.95,16.55.05,3.2.05,6.45.05,6.45Z"/>
      <path class="cls-1" d="m556,154.09h-34.71c-3.52,0-7.26.01-11.26.3-23.04,5.7-34.04,27.7-52.04,41.7-2,1-4,2-6,1-18-11-17-41-41.15-42.82-2.53-.15-5.07-.18-7.6-.18h-50.95c-2.55,0-5.05-.02-7.49-.23-21.8.23-27.8-22.77-43.8-33.77-3-2-7,0-10,2-18,14-33,33-56.81,31.86-2.37.07-4.79.11-7.26.14h-57.78c-2.82,0-5.66,0-8.53,0-25.61-1-38.61,24-59.61,37-4,2-8,2-11,0-12-14-19-39-41.03-37H6v-26h49.59c2.26,0,4.58.01,6.91.19,18.5,1.81,23.5,18.81,32.5,32.81,2,3,6,6,9,4,26-10,43-41,73.56-37h64.28c25.17,2,38.17-22,57.17-35,3-1,8-3,10-2,17,10,20,37,43.3,37h57.85c2.46,0,4.93,0,7.36.12,23.49,2.88,22.49,30.88,40.49,39.88,2,1,6,0,8-1,18-15,32-38,57.25-39h32.75v26Z"/>
      <path class="cls-1" d="m556,201.09h-42.33c-3.63,0-7.44,0-11.47.31-23.2,3.69-32.2,27.69-51.2,39.69-2,1-5,1-7,0-18-12-21-41-45.63-40h-60.83c-2.37,0-4.68,0-6.95-.22-9.59-.78-15.59-6.78-21.59-14.78-5-9-10-24-21-21-21,8-35,33-59.44,35.91-2.21.09-4.47.09-6.77.09h-69.69c-2.86,0-5.73,0-8.62.1-25.47,2.9-34.47,27.9-55.47,38.9-2,1-5,0-7-1-15-13-20-40-44.17-38H6v-26h30.83c3.78,0,7.84,0,12.08.3,21.08,2.7,23.08,26.7,39.08,38.7,2,1,4,1,6,0,21-12,33-37,58.06-38.96,2.89-.04,5.75-.04,8.59-.04h65.58c2.15,0,4.28-.05,6.44-.2,24.33-1.8,38.33-19.8,57.33-33.8,2-1,4-1,6,0,18,12,24,40,48.78,34h58.47c23.75-1,26.75,28,42.75,41,2,1,5,2,7,1,21-12,31-41,57.13-42h45.87v26Z"/>
      <path class="cls-1" d="m556,248.09h-53.72c-26.28-3-36.28,25-56.28,37-2,1-5,0-7-1-16-11-21-32-40.67-35.57-2.37-.38-4.77-.43-7.16-.43h-53.63c-2.37,0-4.68,0-6.95-.22-20.59-2.78-27.59-25.78-43.59-36.78-17-11-24,19-37,28-6,4-12,8-18.59,8.78-2.26.22-4.58.22-6.95.22h-80.96c-2.86,0-5.73,0-8.6.02-7.9.98-14.9,4.98-21.9,8.98-14,8-23,39-40,27-14-10-18-31-36.28-35.14-3.67-.76-7.16-.86-10.35-.86H6v-26h20.37c3.18,0,6.68,0,10.46.02,18.17,1.98,25.17,18.98,34.17,31.98,3,3,6,9,11,7,24-8,33-41,61.5-39h78.28c2.3,0,4.56,0,6.77-.07,4.44.07,8.44-1.93,12.44-2.93,19-7,31-42,50-32,15,8,19,33,39.59,34.83,2.26.16,4.58.17,6.95.17h53.63c2.39,0,4.79,0,7.2.1,21.64.9,26.64,25.9,42.64,37.9,4,3,8,0,11-2,17-13,27-36,50.28-36h53.72v26Z"/>
      <path class="cls-1" d="m556,295.09h-53.72c-3.96,0-8.06,0-12.31.16-17.97,2.84-27.97,19.84-38.97,33.84-6,6-15,6-20,0-11-14-21-32-39.84-33.86-2.39-.14-4.77-.14-7.13-.14h-46.49c-2.37,0-4.68,0-6.95-.23-22.59-2.77-28.59-28.77-46.59-40.77-2-1-5-1-7,1-16,12-23,33-42.19,39.06-3.98.84-8.11.94-12.39.94h-87.51c-2.86,0-5.71,0-8.57.12-19.34,3.88-27.34,21.88-38.34,35.88-3,3-7,6-10,4-21-8-26-39-51.63-39.97-3.18-.03-6.05-.03-8.55-.03H6v-26h20.37c22.63,0,30.63,25,45.63,38,4,3,9,3,13,0,15-15,26-39,49.91-38h89.55c2.37,0,4.68,0,6.95-.15,21.59-2.85,29.59-25.85,44.59-38.85,5-4,9-1,13,2,13,14,22,35,41.59,36.85,2.26.14,4.58.15,6.95.15h46.49c2.37,0,4.75,0,7.14,0,21.84,0,28.84,26.99,45.84,35.99,16,9,25-20,39-29,5-3,9-5,13.91-6.21,4.31-.76,8.42-.79,12.37-.79h53.72v26Z"/>
      <path class="cls-1" d="m556,342.09h-53.72c-3.96,0-8.06,0-12.29.2-21.99,2.8-28.99,24.8-41.99,38.8-2,1-5,2-7,1-20-10-27-37-49.84-39.83-2.39-.17-4.77-.17-7.14-.17h-46.49c-2.37,0-4.68,0-6.95-.22-7.59-.78-14.59-5.78-21.59-10.78-11-10-22-40-38-23-12,14-21,31-39.59,33.78-2.26.22-4.58.22-6.95.22h-89.55c-20.91-2-30.91,18-40.91,34-5,8-14,7-20,1-14-14-26-35-47.63-34.99-3.19,0-6.05,0-8.56,0H6v-26h11.82c2.51,0,5.37,0,8.55.02,25.63.98,32.63,31.98,53.63,40.98,3,0,6-1,8-3,12-14,19-35,38.35-37.92,2.84-.08,5.7-.08,8.56-.08h87.51c4.28,0,8.4-.05,12.33-.4,20.25-5.6,26.25-28.6,43.25-37.6,12-6,19,16,28,24,7,7,15,14,24.58,13.87,2.27.13,4.59.13,6.96.13h46.49c2.37,0,4.75,0,7.14.08,22.84,2.92,28.84,27.92,46.84,38.92,2,1,6,0,8-1,15-13,23-35,43.99-37.91,4.23-.09,8.33-.09,12.29-.09h53.72v26Z"/>
      <path class="cls-1" d="m556,389.09h-53.72c-3.96,0-8.06,0-12.24.22-19.04,4.78-19.04,26.78-31.04,38.78-3,2-7,2-10,0-21-10-33-36-57.83-38.94-2.4-.06-4.78-.06-7.15-.06h-46.49c-2.37,0-4.68,0-6.95-.22-6.59-.78-12.59-4.78-18.59-8.78-12-10-17-31-32-29-20,4-26,35-48.59,37.78-2.26.22-4.58.22-6.95.22h-80.96c-2.86,0-5.73,0-8.58.14-18.92,1.86-22.92,23.86-33.92,36.86-2,2-5,3-7,3-23-8-33-36-57.08-39.5-3.86-.48-7.37-.5-10.55-.5H6v-26h20.37c26.63-1,36.63,26,57.63,39,2,1,6,2,8,1,15-13,19-41,42.91-40h89.55c2.37,0,4.68,0,6.95-.17,20.59-2.83,28.59-23.83,43.59-36.83,7-5,14,1,18,6,10,14,21,27,37.59,30.83,2.26.16,4.58.17,6.95.17h46.49c2.37,0,4.75,0,7.14.19,21.84,3.81,31.84,25.81,48.84,38.81,7,6,15,1,18-6,7-14,15-30,31.99-32.78,4.23-.22,8.33-.22,12.29-.22h53.72v26Z"/>
      <path class="cls-1" d="m556,436.09h-34.71c-3.52,0-7.25,0-11.16,0-24.13-3-22.13,28-39.13,36-2,1-5,0-8-1-21-11-36-31-59.63-34.66-2.64-.3-5.18-.34-7.69-.34h-43.38c-2.55,0-5.05,0-7.53,0-26.77,5-39.77-21-54.77-38-3-3-9-6-13-3-15,13-22,36-44.46,40.78-2.06.16-4.16.22-6.31.22h-74.14c-19.09-1-27.09,19-34.09,33-4,8-13,7-19,2-19-15-36-37-62.17-35H6v-26h20.37c3.18,0,6.68,0,10.48.03,24.15,2.97,38.15,24.97,58.15,37.97,3,1,7,2,9,1,14-13,16-41,39.5-39h78.28c2.3,0,4.56,0,6.77-.07,21.44-.93,31.44-21.93,44.44-35.93,7-8,15-2,20,4,10,14,21,29,37.59,31.85,2.26.14,4.58.15,6.95.15h53.63c24.84,1,39.84,23,59.84,36,6,3,13,5,17-2,8-15,14-36,34.28-34h53.72v26Z"/>
      <path class="cls-1" d="m556,483.09h-18.04c-2.83,0-5.95,0-9.31.04-4.65-1.04-8.65,1.96-12.65,3.96-14,8-12,33-27,32-27-3-43-38-73.72-35.98-2.69,0-5.37-.01-8.05-.02h-39.22c-2.69,0-5.35-.01-8.09-.26-25.92-4.74-45.92-21.74-64.92-39.74-4-3-10-1-13,3-9,19-20,40-43.97,36.91-2.15.09-4.36.09-6.62.09h-53.86c-2.79,0-5.59,0-8.41,0-25.15-2-25.15,28-42.15,39-4,2-8-1-11-3-19-15-35-36-60.41-36-2.27,0-4.47,0-6.62,0H6v-26h30.83c3.78,0,7.84,0,12.18.08,26.99.92,41.99,28.92,65.99,38.92,6,2,9-4,10-7,8-15,17-35,35.65-32h66.28c26.07,1,37.07-25,52.07-42,2-2,6-2,8-1,20,18,35,45,65.26,42.92,2.58.08,5.17.08,7.79.08h42.73c2.45,0,4.92.02,7.46.2,25.77,2.8,42.77,25.8,65.77,35.8,2,1,5,0,7-1,12-11,12-32,29.89-34.49,3.53-.43,7.03-.51,10.36-.51h32.75v26Z"/>
      <path class="cls-1" d="m556,530.09h-5.04c-1.63,0-3.64,0-5.96.07-17.99,1.93-24.99,19.93-31.99,33.93-2,4-5,7-9,5-24-7-35-36-61.54-38.67-2.83-.28-5.58-.31-8.34-.33h-49.68c-30.44,0-45.44-30-72.44-38-2,0-5,1-6,2-10,14-13,35-31.82,35.93-2.17.06-4.85.07-7.96.07h-80.37c-24.85-4-24.85,32-43.85,36-21,4-31-24-50-32-5-2-10-3-14.62-3.86-2.63-.14-5.14-.14-7.6-.14H6v-26h56.54c29.46-1,44.46,29,68.46,38,3,2,7-1,9-4,9-15,17-36,37.56-34h75.39c3.46,0,6.65,0,9.51-.13,19.55.13,21.55-21.87,28.55-35.87,1-1,3-3,5-3,29,9,48,39,80.15,39,2.74,0,5.51,0,8.29,0h37.28c2.51,0,5.01,0,7.54.07,28.74.93,40.74,31.93,67.74,38.93,4,0,6-3,8-6,8-15,15-35,35.16-33h15.84v26Z"/>
      <path class="cls-1" d="m556.06,577.35c-19.06,3.74-22.06,23.74-35.06,35.74-2,1-6,3-9,2-20-11-31-34-55.2-37.75-2.64-.25-5.23-.25-7.83-.25h-56.11c-25.85,0-38.85-28-60.85-38-4-1-7,0-10,3-10,14-16,35-35.59,35-3.5,0-5.41,0-5.41,0h-79.05c-2.62,0-5.28,0-7.94.17-18.01,1.83-23.01,20.83-33.01,33.83-4,6-11,6-17,2-18-15-33-37-58.95-36H6v-26h71.3c29.7-3,42.7,30,68.7,38,5,2,7-3,9-6,9-13,15-29,30.92-31.7,2.67-.29,5.38-.3,8.07-.3h80.21c4.38,0,6.8,0,6.8,0,20,0,23-22.99,34-35.99,2-2,4-3,7-2,23,10,37,34,62.43,37.94,2.8.06,5.61.06,8.43.06h49.48c2.73,0,5.46.08,8.3.51,22.37,4.49,34.37,23.49,50.37,36.49,4,3,11,5,15,0,12-12,14-35,35-36.83,3.23-.17,5-.17,5-.17v6.5c0,3.25,0,6.51,0,6.51,0,0,0,3.28.02,6.59s.03,6.66.03,6.66Z"/>
      <path class="cls-1" d="m556.55,627.47c-15.55,6.61-18.55,39.61-37.55,32.61-20-9-31-36-54.64-36h-63c-2.84,0-5.68,0-8.5-.07-21.85-2.93-30.85-25.93-48.85-37.93-2-1-5-2-7-2-18,10-21,38-44.18,39.96-2.51.04-4.65.04-6.41.04h-76.71c-20.7-1-28.7,20-38.7,35-3,4-9,6-14,3-18-14-31-38-55.85-38-2.74,0-5.46,0-8.14,0H6v-26h87.01c7.99,0,13.99,3,20.99,5,18,7,33,45,51,28,12-11,17-33,36.96-32.95,2.62-.05,5.2-.05,7.75-.05h76.71c1.75,0,3.9,0,6.37-.2,17.21-2.8,23.21-20.8,33.21-31.8,17-19,33,18,49,26,6,3,12,5,17.84,5.88,2.83.12,5.67.12,8.51.12h55.37c25.28-1,37.28,24,57.28,36,2,1,6,2,8,1,15-9,18-29,34-36,0,7,0,14,.5,21.26.03,3.54.06,7.13.06,7.13Z"/>
      <path class="cls-1" d="m556.63,679.47c-11.63,8.62-15.63,32.62-31.63,28.62-21-5-28-37-53.15-37h-70.5c-2.84,0-5.68,0-8.5-.08-23.85-1.92-28.85-29.92-47.85-39.92-2-1-6,0-8,1-15,13-22,36-44.18,38.87-2.51.13-4.65.13-6.41.13h-61.95c-2.37,0-4.78,0-7.24.08-23.22.92-31.22,24.92-49.22,34.92-4,2-8,4-12,1-16-13-23-39-46.56-36H6v-26h95.15c2.74,0,5.51.01,8.38.25,21.47,3.75,33.47,22.75,47.47,37.75,4,4,10,2,14-1,13-12,19-34,38.73-36.86,2.52-.13,5.03-.14,7.49-.14h69.19c1.75,0,3.9,0,6.41-.13,22.18-2.87,29.18-24.87,43.18-38.87,2-2,5-2,7-1,21,9,26,38,49.85,39.8,2.82.2,5.65.2,8.5.2h63c2.52,0,5.02,0,7.53.19,23.12,2.81,30.12,30.81,51.12,35.81,17,4,21-22,34-30,0,7,0,14-.31,21.35-.02,3.53-.06,7.03-.06,7.03Z"/>
      <path class="cls-1" d="m556.78,729.67c-9.78,8.42-13.78,26.42-27.78,23.42-23-5-31-38-56.72-35h-67.47c-2.52-.01-5.06-.02-7.62-.03-22.19.03-33.19-20.97-47.19-33.97-3-2-6-3-9-2-18,10-27,34-49.29,35.99-2.79.01-5.58.01-8.37.01h-58.25c-3.07,0-6.12,0-9.2.11-22.9-.11-39.9,20.89-63.9,15.89-17-3-28-18-45.59-15.99-2.47,0-4.92,0-7.33,0H6v-26h107.95c3.05,0,6.05-1,8.05,1,26,37,56,28,85,1,2-2,6-1,8.93-1.88,3.05-.12,6.1-.12,9.17-.12h58.25c2.79,0,5.58,0,8.37,0,23.29,0,29.29-26.99,47.29-38.99,2-2,5-2,7-1,19,11,25,42,51.19,40h75.09c24.72,0,33.72,30,54.72,37,14,6,19-19,30-27,0,8,0,15-.3,23.22.04,2.61.07,4.36.07,4.36Z"/>
      <path class="cls-1" d="m556,107.09h-23.38c-24.62-1-41.62,21-59.62,36-6,6-14,4-18-3-8-15-17-36-37.45-33h-57.5c-2.62,0-5.21,0-7.75-.05-20.3-1.95-22.3-24.95-34.3-36.95-3-2-7-1-10,0-20,11-32,32-54.99,36.59-3.52.41-7.24.41-11.18.41h-55.99c-2.74,0-5.51,0-8.33.07-28.51,1.93-43.51,36.93-69.51,34.93-16-1-15-36-38.23-34.96-2.45-.04-4.87-.04-7.24-.04H6v-26h63.78c2.46,0,4.97,0,7.51,0,21.7-2,24.7,24,36.7,37,2,2,5,2,8,1,23-9,38-37,63.83-37.99,2.75,0,5.47,0,8.15,0h55.47c2.15,0,4.21,0,6.18-.05,27.36-1.95,40.36-29.95,66.36-36.95,2,0,4,1,6,2,12,12,12,34,32.07,34.94,2.6.06,5.26.06,7.94.06h55.32c2.68,0,5.37,0,8.03.03,18.64.97,23.64,20.97,33.64,34.97,3,3,6,4,10,3,22-11,37-35,62.9-37.88,2.88-.11,5.43-.12,7.66-.12h10.44v26Z"/>
    </g>
  </g>
</svg>