<?xml version="1.0" encoding="UTF-8"?>
<svg id="Lag_2" data-name="Lag 2" xmlns="http://www.w3.org/2000/svg" xmlns:xlink="http://www.w3.org/1999/xlink" viewBox="0 0 467 941.09">
  <defs>
    <style>
      .cls-1 {
        fill: #1313d7;
      }

      .cls-1, .cls-2 {
        stroke-width: 0px;
      }

      .cls-2 {
        fill: url(#Ikke-navngivet_forløb_444);
      }
    </style>
    <linearGradient id="Ikke-navngivet_forløb_444" data-name="Ikke-navngivet forløb 444" x1="0" y1="459.27" x2="467" y2="459.27" gradientUnits="userSpaceOnUse">
      <stop offset=".05" stop-color="#1313d7"/>
      <stop offset=".19" stop-color="#4848e0"/>
      <stop offset=".37" stop-color="#8888ea"/>
      <stop offset=".54" stop-color="#bbbbf3"/>
      <stop offset=".68" stop-color="#e0e0f9"/>
      <stop offset=".79" stop-color="#f6f6fd"/>
      <stop offset=".87" stop-color="#fff"/>
    </linearGradient>
  </defs>
  <g id="Lag_3" data-name="Lag 3">
    <g>
      <polygon class="cls-2" points="467 899.09 233.5 899.09 0 899.09 0 459.27 0 19.45 233.5 19.45 467 19.45 467 459.27 467 899.09"/>
      <path class="cls-1" d="m464.17,64.61s-1.31,0-3.74.02c-21.28,1.06-36.29,24.71-53.8,38.69-2.5,1.08-5.84,3.23-8.34,2.15-13.34-11.83-12.51-43.01-32.7-40.85-2.14,0-4.3,0-6.46,0h-44.93c-2.28,0-4.55,0-6.76-.07-5.04-1-10.04-3.15-13.38-8.53-6.67-12.9-10.84-40.86-26.68-26.88-16.68,13.98-30.85,35.48-51.54,35.48-2.96,0-6.21,0-9.71,0h-37.18c-2.19,0-4.4,0-6.66.04-22.48-.04-33.32,30.07-52.5,40.82-2.5,1.08-5.84,2.15-7.5,0-10.01-13.98-13.34-40.86-30.81-40.81-2.19-.04-4.34-.04-6.46-.04H5.56v-27.96h65.91c2.19,0,4.4,0,6.64,0,18.33-1.08,21.67,26.88,31.68,40.85,1.67,2.15,4.17,2.15,5.84,1.08,20.85-11.83,34.19-45.16,59.79-41.93h44.41c3.15,0,5.87,0,8.15-.14,5.23-.94,10.23-3.09,15.24-5.24,15.84-7.53,34.19-45.16,49.2-25.81,8.34,11.83,12.51,33.33,28.72,31.18h48.27c2.27,0,4.53,0,6.77.03,17.96-2.18,18.8,25.78,30.47,38.68,1.67,1.08,5,1.08,6.67,0,16.68-10.75,30.02-29.03,48.36-35.48,0,6.45,2.5,11.83,2.46,17.79.04,3.44.04,6.94.04,6.94Z"/>
      <path class="cls-1" d="m464.17,165.68h-28.94c-2.94,0-6.05.02-9.38.32-19.21,6.13-28.38,29.79-43.39,44.84-1.67,1.08-3.34,2.15-5,1.08-15.01-11.83-14.18-44.08-34.31-46.04-2.11-.16-4.22-.2-6.34-.2h-42.49c-2.12,0-4.21-.02-6.25-.24-18.18.24-23.18-24.49-36.52-36.31-2.5-2.15-5.84,0-8.34,2.15-15.01,15.05-27.52,35.48-47.37,34.26-1.98.08-3.99.11-6.05.15h-48.18c-2.35,0-4.72,0-7.11,0-21.36-1.08-32.2,25.8-49.71,39.78-3.34,2.15-6.67,2.15-9.17,0-10.01-15.05-15.84-41.93-34.21-39.78H5.56v-27.96h41.35c1.89,0,3.82.01,5.76.2,15.42,1.95,19.59,20.22,27.1,35.28,1.67,3.23,5,6.45,7.5,4.3,21.68-10.75,35.85-44.08,61.33-39.78h53.6c20.99,2.15,31.82-23.65,47.67-37.63,2.5-1.08,6.67-3.23,8.34-2.15,14.18,10.75,16.68,39.78,36.1,39.78h48.24c2.05,0,4.11,0,6.14.12,19.59,3.1,18.75,33.21,33.76,42.88,1.67,1.08,5,0,6.67-1.08,15.01-16.13,26.68-40.86,47.74-41.93h27.31v27.96Z"/>
      <path class="cls-1" d="m464.17,216.21h-35.29c-3.03,0-6.2,0-9.56.34-19.35,3.96-26.85,29.77-42.7,42.67-1.67,1.08-4.17,1.08-5.84,0-15.01-12.9-17.51-44.08-38.05-43.01h-50.72c-1.97,0-3.91,0-5.79-.24-7.99-.84-13-7.29-18-15.89-4.17-9.68-8.34-25.81-17.51-22.58-17.51,8.6-29.18,35.48-49.57,38.61-1.84.1-3.73.1-5.65.1h-58.11c-2.38,0-4.77,0-7.19.11-21.24,3.12-28.74,30-46.25,41.83-1.67,1.08-4.17,0-5.84-1.08-12.51-13.98-16.68-43.01-36.83-40.86H5.56v-27.96h25.71c3.15,0,6.54,0,10.08.33,17.58,2.9,19.25,28.7,32.59,41.61,1.67,1.08,3.34,1.08,5,0,17.51-12.9,27.52-39.78,48.41-41.89,2.41-.05,4.79-.05,7.16-.05h54.68c1.79,0,3.57-.05,5.37-.21,20.29-1.94,31.96-21.29,47.81-36.35,1.67-1.08,3.34-1.08,5,0,15.01,12.9,20.01,43.01,40.68,36.56h48.75c19.8-1.08,22.3,30.11,35.65,44.08,1.67,1.08,4.17,2.15,5.84,1.08,17.51-12.9,25.85-44.08,47.64-45.16h38.25v27.96Z"/>
      <path class="cls-1" d="m464.17,266.75h-44.79c-21.91-3.23-30.25,26.88-46.93,39.78-1.67,1.08-4.17,0-5.84-1.08-13.34-11.83-17.51-34.41-33.92-38.24-1.98-.4-3.98-.46-5.97-.46h-44.72c-1.97,0-3.91,0-5.79-.24-17.17-2.99-23-27.72-36.35-39.54-14.18-11.83-20.01,20.43-30.85,30.11-5,4.3-10.01,8.6-15.5,9.44-1.89.23-3.82.24-5.79.24h-67.51c-2.39,0-4.78,0-7.17.02-6.58,1.05-12.42,5.35-18.26,9.65-11.67,8.6-19.18,41.93-33.35,29.03-11.67-10.75-15.01-33.33-30.25-37.79-3.06-.82-5.97-.92-8.63-.92H5.56v-27.96h16.99c2.65,0,5.57,0,8.72.02,15.15,2.13,20.99,20.4,28.49,34.38,2.5,3.23,5,9.68,9.17,7.53,20.01-8.6,27.52-44.08,51.28-41.93h65.27c1.92,0,3.81,0,5.65-.08,3.71.08,7.04-2.07,10.38-3.15,15.84-7.53,25.85-45.16,41.69-34.41,12.51,8.6,15.84,35.48,33.01,37.45,1.89.17,3.82.18,5.79.18h44.72c1.99,0,4,0,6,.1,18.04.97,22.21,27.85,35.55,40.75,3.34,3.23,6.67,0,9.17-2.15,14.18-13.98,22.51-38.71,41.93-38.71h44.79v27.96Z"/>
      <path class="cls-1" d="m464.17,317.28h-44.79c-3.3,0-6.72,0-10.26.17-14.99,3.05-23.33,21.33-32.5,36.39-5,6.45-12.51,6.45-16.68,0-9.17-15.05-17.51-34.41-33.22-36.41-1.99-.15-3.98-.15-5.95-.15h-38.76c-1.97,0-3.91,0-5.79-.24-18.84-2.98-23.84-30.94-38.85-43.84-1.67-1.08-4.17-1.08-5.84,1.08-13.34,12.9-19.18,35.48-35.18,41.99-3.31.9-6.76,1.02-10.33,1.02h-72.97c-2.38,0-4.76,0-7.14.13-16.13,4.17-22.8,23.53-31.97,38.58-2.5,3.23-5.84,6.45-8.34,4.3-17.51-8.6-21.68-41.93-43.05-42.98-2.65-.03-5.04-.03-7.13-.03H5.56v-27.96h16.99c18.87,0,25.54,26.88,38.05,40.86,3.34,3.23,7.5,3.23,10.84,0,12.51-16.13,21.68-41.93,41.62-40.86h74.67c1.97,0,3.91,0,5.79-.16,18-3.07,24.67-27.8,37.18-41.78,4.17-4.3,7.5-1.08,10.84,2.15,10.84,15.05,18.34,37.63,34.68,39.63,1.89.15,3.82.16,5.79.16h38.76c1.97,0,3.96,0,5.95,0,18.21,0,24.05,29.02,38.22,38.7,13.34,9.68,20.85-21.5,32.52-31.18,4.17-3.23,7.5-5.38,11.6-6.68,3.59-.81,7.02-.85,10.32-.85h44.79v27.96Z"/>
      <path class="cls-1" d="m464.17,367.82h-44.79c-3.3,0-6.72,0-10.25.22-18.34,3.01-24.17,26.66-35.01,41.72-1.67,1.08-4.17,2.15-5.84,1.08-16.68-10.75-22.51-39.78-41.56-42.82-1.99-.18-3.98-.18-5.95-.18h-38.76c-1.97,0-3.91,0-5.79-.24-6.33-.84-12.16-6.21-18-11.59-9.17-10.75-18.34-43.01-31.69-24.73-10.01,15.05-17.51,33.33-33.01,36.32-1.89.23-3.82.24-5.79.24h-74.67c-17.44-2.15-25.77,19.35-34.11,36.56-4.17,8.6-11.67,7.53-16.68,1.08-11.67-15.05-21.68-37.63-39.71-37.63-2.66,0-5.05,0-7.14,0H5.56v-27.96h9.85c2.09,0,4.48,0,7.13.03,21.37,1.05,27.21,34.38,44.72,44.06,2.5,0,5-1.08,6.67-3.23,10.01-15.05,15.84-37.63,31.98-40.77,2.37-.09,4.75-.09,7.14-.09h72.97c3.57,0,7-.05,10.28-.43,16.88-6.02,21.89-30.75,36.06-40.42,10.01-6.45,15.84,17.2,23.35,25.81,5.84,7.53,12.51,15.05,20.49,14.91,1.9.14,3.83.14,5.8.14h38.76c1.97,0,3.96,0,5.95.09,19.04,3.13,24.05,30.01,39.05,41.84,1.67,1.08,5,0,6.67-1.08,12.51-13.98,19.18-37.63,36.68-40.77,3.53-.09,6.95-.09,10.25-.09h44.79v27.96Z"/>
      <path class="cls-1" d="m464.17,418.35h-44.79c-3.3,0-6.72,0-10.2.24-15.88,5.14-15.88,28.79-25.88,41.7-2.5,2.15-5.84,2.15-8.34,0-17.51-10.75-27.52-38.71-48.22-41.86-2-.07-3.99-.07-5.96-.07h-38.76c-1.97,0-3.91,0-5.79-.24-5.49-.84-10.5-5.14-15.5-9.44-10.01-10.75-14.18-33.33-26.68-31.18-16.68,4.3-21.68,37.63-40.51,40.62-1.89.23-3.82.24-5.79.24h-67.51c-2.39,0-4.78,0-7.16.15-15.77,2-19.11,25.65-28.28,39.63-1.67,2.15-4.17,3.23-5.84,3.23-19.18-8.6-27.52-38.71-47.6-42.47-3.22-.51-6.14-.54-8.8-.54H5.56v-27.96h16.99c22.2-1.08,30.54,27.96,48.05,41.93,1.67,1.08,5,2.15,6.67,1.08,12.51-13.98,15.84-44.08,35.78-43.01h74.67c1.97,0,3.91,0,5.79-.18,17.17-3.05,23.84-25.63,36.35-39.6,5.84-5.38,11.67,1.08,15.01,6.45,8.34,15.05,17.51,29.03,31.34,33.15,1.89.17,3.82.18,5.79.18h38.76c1.97,0,3.96,0,5.95.2,18.21,4.1,26.55,27.75,40.72,41.73,5.84,6.45,12.51,1.08,15.01-6.45,5.84-15.05,12.51-32.26,26.67-35.24,3.53-.24,6.95-.24,10.25-.24h44.79v27.96Z"/>
      <path class="cls-1" d="m464.17,468.89h-28.94c-2.94,0-6.05,0-9.31,0-20.12-3.23-18.45,30.11-32.63,38.71-1.67,1.08-4.17,0-6.67-1.08-17.51-11.83-30.02-33.33-49.72-37.27-2.2-.32-4.32-.36-6.41-.36h-36.17c-2.12,0-4.21,0-6.28,0-22.32,5.38-33.16-22.58-45.67-40.86-2.5-3.23-7.5-6.45-10.84-3.23-12.51,13.98-18.34,38.71-37.07,43.85-1.72.18-3.47.24-5.26.24h-61.82c-15.92-1.08-22.59,20.43-28.42,35.48-3.34,8.6-10.84,7.53-15.84,2.15-15.84-16.13-30.02-39.78-51.84-37.63H5.56v-27.96h16.99c2.65,0,5.57,0,8.74.03,20.14,3.2,31.81,26.85,48.49,40.83,2.5,1.08,5.84,2.15,7.5,1.08,11.67-13.98,13.34-44.08,32.94-41.93h65.27c1.92,0,3.81,0,5.65-.08,17.88-1,26.22-23.58,37.06-38.63,5.84-8.6,12.51-2.15,16.68,4.3,8.34,15.05,17.51,31.18,31.34,34.25,1.89.15,3.82.16,5.79.16h44.72c20.71,1.08,33.22,24.73,49.89,38.71,5,3.23,10.84,5.38,14.18-2.15,6.67-16.13,11.67-38.71,28.58-36.56h44.79v27.96Z"/>
      <path class="cls-1" d="m464.17,519.42h-15.05c-2.36,0-4.96,0-7.76.05-3.87-1.12-7.21,2.1-10.54,4.25-11.67,8.6-10.01,35.48-22.51,34.41-22.51-3.23-35.85-40.86-61.47-38.69-2.24,0-4.48-.01-6.71-.02h-32.7c-2.24,0-4.46-.01-6.75-.27-21.61-5.1-38.29-23.38-54.13-42.73-3.34-3.23-8.34-1.08-10.84,3.23-7.5,20.43-16.68,43.01-36.66,39.68-1.79.1-3.63.1-5.52.1h-44.91c-2.32,0-4.66,0-7.01,0-20.97-2.15-20.97,30.1-35.14,41.93-3.34,2.15-6.67-1.08-9.17-3.23-15.84-16.13-29.18-38.71-50.37-38.71-1.89,0-3.73,0-5.52,0H5.56v-27.96h25.71c3.15,0,6.54,0,10.15.08,22.5.99,35.01,31.1,55.02,41.85,5,2.15,7.5-4.3,8.34-7.53,6.67-16.13,14.18-37.63,29.72-34.41h55.27c21.74,1.08,30.91-26.88,43.42-45.16,1.67-2.15,5-2.15,6.67-1.08,16.68,19.35,29.18,48.38,54.42,46.15,2.15.09,4.31.09,6.49.09h35.63c2.04,0,4.1.02,6.22.22,21.48,3.01,35.66,27.74,54.84,38.49,1.67,1.08,4.17,0,5.84-1.08,10.01-11.83,10.01-34.41,24.92-37.08,2.94-.46,5.86-.55,8.64-.55h27.31v27.96Z"/>
      <path class="cls-1" d="m464.17,569.96h-4.2c-1.36,0-3.03,0-4.97.08-15,2.07-20.84,21.43-26.68,36.48-1.67,4.3-4.17,7.53-7.5,5.38-20.01-7.53-29.18-38.71-51.31-41.58-2.36-.3-4.65-.34-6.95-.36h-41.42c-25.38,0-37.89-32.26-60.41-40.86-1.67,0-4.17,1.08-5,2.15-8.34,15.05-10.84,37.63-26.53,38.63-1.81.07-4.04.08-6.64.08h-67.01c-20.72-4.3-20.72,34.41-36.56,38.71-17.51,4.3-25.85-25.81-41.69-34.41-4.17-2.15-8.34-3.23-12.19-4.15-2.19-.15-4.28-.15-6.34-.15H5.56v-27.96h47.14c24.57-1.08,37.08,31.18,57.09,40.86,2.5,2.15,5.84-1.08,7.5-4.3,7.5-16.13,14.18-38.71,31.32-36.56h62.86c2.88,0,5.55,0,7.93-.14,16.3.14,17.97-23.51,23.8-38.57.83-1.08,2.5-3.23,4.17-3.23,24.18,9.68,40.02,41.93,66.83,41.93,2.29,0,4.59,0,6.91,0h31.08c2.09,0,4.18,0,6.29.07,23.96,1,33.97,34.34,56.48,41.86,3.34,0,5-3.23,6.67-6.45,6.67-16.13,12.51-37.63,29.32-35.48h13.21v27.96Z"/>
      <path class="cls-1" d="m464.22,620.77c-15.89,4.02-18.39,25.52-29.23,38.43-1.67,1.08-5,3.23-7.5,2.15-16.68-11.83-25.85-36.56-46.03-40.59-2.2-.26-4.36-.27-6.53-.27h-46.79c-21.56,0-32.4-30.11-50.74-40.86-3.34-1.08-5.84,0-8.34,3.23-8.34,15.05-13.34,37.63-29.68,37.63-2.92,0-4.51,0-4.51,0h-65.91c-2.19,0-4.4,0-6.62.19-15.02,1.96-19.19,22.39-27.53,36.37-3.34,6.45-9.17,6.45-14.18,2.15-15.01-16.13-27.52-39.78-49.15-38.71H5.56v-27.96h59.45c24.77-3.23,35.61,32.26,57.29,40.86,4.17,2.15,5.84-3.23,7.5-6.45,7.5-13.98,12.51-31.18,25.78-34.09,2.22-.31,4.49-.32,6.73-.32h66.88c3.65,0,5.67,0,5.67,0,16.68,0,19.18-24.72,28.35-38.7,1.67-2.15,3.34-3.23,5.84-2.15,19.18,10.75,30.85,36.56,52.05,40.79,2.34.07,4.67.07,7.03.07h41.26c2.27,0,4.55.08,6.92.55,18.65,4.82,28.66,25.25,42,39.23,3.34,3.23,9.17,5.38,12.51,0,10.01-12.9,11.67-37.63,29.18-39.6,2.69-.19,4.17-.19,4.17-.19v6.99c0,3.49,0,7,0,7,0,0,0,3.53.02,7.09s.03,7.16.03,7.16Z"/>
      <path class="cls-1" d="m464.63,674.67c-12.97,7.11-15.47,42.59-31.31,35.07-16.68-9.68-25.85-38.71-45.56-38.71h-52.53c-2.37,0-4.74,0-7.09-.07-18.22-3.15-25.73-27.88-40.74-40.78-1.67-1.08-4.17-2.15-5.84-2.15-15.01,10.75-17.51,40.86-36.84,42.97-2.09.04-3.88.04-5.34.04h-63.96c-17.26-1.08-23.93,21.5-32.27,37.63-2.5,4.3-7.5,6.45-11.67,3.23-15.01-15.05-25.85-40.86-46.57-40.85-2.29,0-4.55,0-6.79,0H5.56v-27.96h72.55c6.66,0,11.66,3.23,17.5,5.38,15.01,7.53,27.52,48.38,42.53,30.11,10.01-11.83,14.18-35.48,30.81-35.43,2.18-.05,4.34-.05,6.46-.05h63.96c1.46,0,3.25,0,5.32-.22,14.35-3.01,19.36-22.36,27.7-34.19,14.18-20.43,27.52,19.35,40.86,27.96,5,3.23,10.01,5.38,14.87,6.32,2.36.13,4.73.13,7.1.13h46.17c21.08-1.08,31.09,25.81,47.76,38.71,1.67,1.08,5,2.15,6.67,1.08,12.51-9.68,15.01-31.18,28.35-38.71,0,7.53,0,15.05.41,22.86.02,3.81.05,7.66.05,7.66Z"/>
      <path class="cls-1" d="m464.69,730.57c-9.7,9.27-13.04,35.08-26.38,30.77-17.51-5.38-23.35-39.78-44.31-39.78h-58.79c-2.37,0-4.74,0-7.09-.08-19.89-2.07-24.06-32.17-39.9-42.93-1.67-1.08-5,0-6.67,1.08-12.51,13.98-18.34,38.71-36.84,41.79-2.09.14-3.88.14-5.34.14h-51.65c-1.97,0-3.99,0-6.04.08-19.36.99-26.03,26.8-41.04,37.55-3.34,2.15-6.67,4.3-10.01,1.08-13.34-13.98-19.18-41.93-38.82-38.71H5.56v-27.96h79.34c2.28,0,4.6.01,6.98.27,17.9,4.03,27.91,24.46,39.58,40.59,3.34,4.3,8.34,2.15,11.67-1.08,10.84-12.9,15.84-36.56,32.29-39.64,2.1-.14,4.19-.15,6.25-.15h57.7c1.46,0,3.25,0,5.34-.14,18.5-3.08,24.33-26.74,36.01-41.79,1.67-2.15,4.17-2.15,5.84-1.08,17.51,9.68,21.68,40.86,41.57,42.79,2.35.21,4.71.21,7.09.21h52.53c2.1,0,4.19,0,6.28.21,19.27,3.02,25.11,33.12,42.62,38.5,14.18,4.3,17.51-23.65,28.35-32.26,0,7.53,0,15.05-.26,22.96-.02,3.79-.05,7.55-.05,7.55Z"/>
      <path class="cls-1" d="m466.81,784.55c-8.15,9.05-11.49,28.41-23.16,25.18-19.18-5.38-25.85-40.86-47.3-37.63h-56.26c-2.1-.01-4.22-.02-6.35-.03-18.5.03-27.67-22.54-39.34-36.52-2.5-2.15-5-3.23-7.5-2.15-15.01,10.75-22.51,36.56-41.1,38.69-2.32.01-4.65.01-6.98.01h-48.57c-2.56,0-5.11,0-7.67.12-19.09-.12-33.27,22.46-53.28,17.09-14.18-3.23-23.35-19.35-38.02-17.19-2.06,0-4.1,0-6.11,0H7.56v-27.96h90.01c2.55,0,5.05-1.08,6.72,1.08,21.68,39.78,46.69,30.11,70.88,1.08,1.67-2.15,5-1.08,7.45-2.02,2.54-.13,5.09-.13,7.65-.13h48.57c2.33,0,4.65,0,6.98,0,19.42,0,24.42-29.02,39.43-41.93,1.67-2.15,4.17-2.15,5.84-1.08,15.84,11.83,20.85,45.16,42.68,43.01h62.61c20.62,0,28.12,32.26,45.63,39.78,11.67,6.45,15.84-20.43,25.01-29.03,0,8.6,0,16.13-.25,24.97.03,2.81.06,4.68.06,4.68Z"/>
      <path class="cls-1" d="m466.81,825.55c-8.15,9.05-11.49,28.41-23.16,25.18-19.18-5.38-25.85-40.86-47.3-37.63h-56.26c-2.1-.01-4.22-.02-6.35-.03-18.5.03-27.67-22.54-39.34-36.52-2.5-2.15-5-3.23-7.5-2.15-15.01,10.75-22.51,36.56-41.1,38.69-2.32.01-4.65.01-6.98.01h-48.57c-2.56,0-5.11,0-7.67.12-19.09-.12-33.27,22.46-53.28,17.09-14.18-3.23-23.35-19.35-38.02-17.19-2.06,0-4.1,0-6.11,0H7.56v-27.96h90.01c2.55,0,5.05-1.08,6.72,1.08,21.68,39.78,46.69,30.11,70.88,1.08,1.67-2.15,5-1.08,7.45-2.02,2.54-.13,5.09-.13,7.65-.13h48.57c2.33,0,4.65,0,6.98,0,19.42,0,24.42-29.02,39.43-41.93,1.67-2.15,4.17-2.15,5.84-1.08,15.84,11.83,20.85,45.16,42.68,43.01h62.61c20.62,0,28.12,32.26,45.63,39.78,11.67,6.45,15.84-20.43,25.01-29.03,0,8.6,0,16.13-.25,24.97.03,2.81.06,4.68.06,4.68Z"/>
      <path class="cls-1" d="m466.81,873.55c-8.15,9.05-11.49,28.41-23.16,25.18-19.18-5.38-25.85-40.86-47.3-37.63h-56.26c-2.1-.01-4.22-.02-6.35-.03-18.5.03-27.67-22.54-39.34-36.52-2.5-2.15-5-3.23-7.5-2.15-15.01,10.75-22.51,36.56-41.1,38.69-2.32.01-4.65.01-6.98.01h-48.57c-2.56,0-5.11,0-7.67.12-19.09-.12-33.27,22.46-53.28,17.09-14.18-3.23-23.35-19.35-38.02-17.19-2.06,0-4.1,0-6.11,0H7.56v-27.96h90.01c2.55,0,5.05-1.08,6.72,1.08,21.68,39.78,46.69,30.11,70.88,1.08,1.67-2.15,5-1.08,7.45-2.02,2.54-.13,5.09-.13,7.65-.13h48.57c2.33,0,4.65,0,6.98,0,19.42,0,24.42-29.02,39.43-41.93,1.67-2.15,4.17-2.15,5.84-1.08,15.84,11.83,20.85,45.16,42.68,43.01h62.61c20.62,0,28.12,32.26,45.63,39.78,11.67,6.45,15.84-20.43,25.01-29.03,0,8.6,0,16.13-.25,24.97.03,2.81.06,4.68.06,4.68Z"/>
      <path class="cls-1" d="m466.81,915.55c-8.15,9.05-11.49,28.41-23.16,25.18-19.18-5.38-25.85-40.86-47.3-37.63h-56.26c-2.1-.01-4.22-.02-6.35-.03-18.5.03-27.67-22.54-39.34-36.52-2.5-2.15-5-3.23-7.5-2.15-15.01,10.75-22.51,36.56-41.1,38.69-2.32.01-4.65.01-6.98.01h-48.57c-2.56,0-5.11,0-7.67.12-19.09-.12-33.27,22.46-53.28,17.09-14.18-3.23-23.35-19.35-38.02-17.19-2.06,0-4.1,0-6.11,0H7.56v-27.96h90.01c2.55,0,5.05-1.08,6.72,1.08,21.68,39.78,46.69,30.11,70.88,1.08,1.67-2.15,5-1.08,7.45-2.02,2.54-.13,5.09-.13,7.65-.13h48.57c2.33,0,4.65,0,6.98,0,19.42,0,24.42-29.02,39.43-41.93,1.67-2.15,4.17-2.15,5.84-1.08,15.84,11.83,20.85,45.16,42.68,43.01h62.61c20.62,0,28.12,32.26,45.63,39.78,11.67,6.45,15.84-20.43,25.01-29.03,0,8.6,0,16.13-.25,24.97.03,2.81.06,4.68.06,4.68Z"/>
      <path class="cls-1" d="m464.17,115.14h-19.49c-20.53-1.08-34.71,22.58-49.72,38.71-5,6.45-11.67,4.3-15.01-3.23-6.67-16.13-14.18-38.71-31.23-35.48h-47.94c-2.19,0-4.34,0-6.46-.05-16.93-2.1-18.6-26.83-28.6-39.73-2.5-2.15-5.84-1.08-8.34,0-16.68,11.83-26.68,34.41-45.85,39.34-2.93.44-6.03.44-9.32.44h-46.68c-2.28,0-4.59,0-6.95.07-23.77,2.08-36.28,39.71-57.96,37.56-13.34-1.08-12.51-38.71-31.87-37.59-2.05-.04-4.06-.04-6.03-.04H5.56v-27.96h53.18c2.05,0,4.14,0,6.27,0,18.1-2.15,20.6,25.8,30.6,39.78,1.67,2.15,4.17,2.15,6.67,1.08,19.18-9.68,31.69-39.78,53.23-40.85,2.3,0,4.56,0,6.8,0h46.25c1.79,0,3.51,0,5.15-.06,22.82-2.09,33.66-32.2,55.34-39.73,1.67,0,3.34,1.08,5,2.15,10.01,12.9,10.01,36.56,26.74,37.57,2.17.06,4.38.06,6.62.06h46.13c2.24,0,4.47,0,6.7.03,15.54,1.04,19.71,22.55,28.05,37.6,2.5,3.23,5,4.3,8.34,3.23,18.34-11.83,30.85-37.63,52.45-40.73,2.41-.12,4.53-.13,6.38-.13h8.71v27.96Z"/>
    </g>
  </g>
</svg>