<?xml version="1.0" encoding="utf-8"?>
<!-- Generator: Adobe Illustrator 28.0.0, SVG Export Plug-In . SVG Version: 6.00 Build 0)  -->
<svg version="1.1" id="Lag_2_00000103265359401675571370000015593384469447655088_"
	 xmlns="http://www.w3.org/2000/svg" xmlns:xlink="http://www.w3.org/1999/xlink" x="0px" y="0px" viewBox="0 0 62.4 57.5"
	 style="enable-background:new 0 0 62.4 57.5;" xml:space="preserve">
<style type="text/css">
	.st0{fill:none;stroke:#CCCCCC;stroke-miterlimit:10;}
	.st1{fill:#B3B3B3;}
	.st2{font-family:'ArialMT';}
	.st3{font-size:6.81px;}
</style>
<g id="Lag_4">
	<path class="st0" d="M21.7,15.6h10.7c0,0,0.5-15.1-15.6-15.1c-21.7,0-21.5,44.9,0,44.9c16.2,0,15.6-15.1,15.6-15.1H21.7
		c0,0,0,6-4.2,6.1C7.9,36.7,7.9,8.7,16.8,8.5C21.7,8.4,21.7,15.6,21.7,15.6z"/>
	<text transform="matrix(1 0 0 1 2.38 55.29)" class="st1 st2 st3">© 2023 CKDESIGN</text>
	<polygon class="st0" points="34.7,15.6 48.5,0.5 60.4,0.5 40.7,22.7 60.4,45.4 48.3,45.4 34.7,30.3 	"/>
</g>
</svg>
