<?xml version="1.0" encoding="UTF-8"?>
<svg id="Lag_2" data-name="Lag 2" xmlns="http://www.w3.org/2000/svg" viewBox="0 0 25 32">
  <defs>
    <style>
      .cls-1 {
        fill: #c4047f;
        stroke-width: 0px;
      }
    </style>
  </defs>
  <g id="Lag_2-2" data-name="Lag 2">
    <path class="cls-1" d="m24.32,14.16c-.44,1.75-.11,5.26-.11,5.26,0,0-.14,5.81-1.32,7.51-1.05,1.5-3.23,4.01-6.69,4.67s-6.72,1.52-10.9-6.69C2.16,18.72-.66,16.12.14,14.71c1.54-2.74,5.43,5.03,6.3,4.55,1.6-.88-8.08-10.29-5.73-12.05,2.86-2.14,8.14,9.7,9.23,8.79S.52,4.52,3.6,2.37C7.19-.12,11.64,14.11,12.95,13.65,14.62,13.06,5.44,1.99,8.28.24c4.12-2.55,8.61,16.26,11.31,15.21,1.25-.49,1.35-3.58,1.85-5.09.55-1.64.97-2.24,1.62-2.55.51-.24,1.12-.1,1.46.35s.62,1.23.4,2.6"/>
  </g>
</svg>