<?xml version="1.0" encoding="utf-8"?>
<!-- Generator: Adobe Illustrator 28.0.0, SVG Export Plug-In . SVG Version: 6.00 Build 0)  -->
<svg version="1.1" id="Lag_2_00000016070426037674320190000005882858880817603756_"
	 xmlns="http://www.w3.org/2000/svg" xmlns:xlink="http://www.w3.org/1999/xlink" x="0px" y="0px" viewBox="0 0 25 32"
	 style="enable-background:new 0 0 25 32;" xml:space="preserve">
<style type="text/css">
	.st0{fill:#F57F00;}
</style>
<g id="Lag_2-2">
	<path class="st0" d="M24.3,14.2c-0.4,1.8-0.1,5.3-0.1,5.3s-0.1,5.8-1.3,7.5c-1,1.5-3.2,4-6.7,4.7S9.5,33.2,5.3,25
		c-3.1-6.2-6-8.8-5.2-10.2c1.5-2.7,5.4,5,6.3,4.6C8,18.4-1.6,9,0.7,7.2c2.9-2.1,8.1,9.7,9.2,8.8S0.5,4.5,3.6,2.4
		c3.6-2.5,8,11.7,9.4,11.3C14.6,13.1,5.4,2,8.3,0.2c4.1-2.5,8.6,16.3,11.3,15.2c1.2-0.5,1.4-3.6,1.9-5.1c0.5-1.6,1-2.2,1.6-2.6
		c0.5-0.2,1.1-0.1,1.5,0.4c0.3,0.5,0.6,1.2,0.4,2.6L24.3,14.2z"/>
</g>
</svg>
